<?xml version="1.0" standalone="no"?>
<!DOCTYPE svg PUBLIC "-//W3C//DTD SVG 20010904//EN"
 "http://www.w3.org/TR/2001/REC-SVG-20010904/DTD/svg10.dtd">
<svg version="1.0" xmlns="http://www.w3.org/2000/svg"
 width="308.000000pt" height="308.000000pt" viewBox="0 0 308.000000 308.000000"
 preserveAspectRatio="xMidYMid meet">
<metadata>
Created by potrace 1.14, written by Peter Selinger 2001-2017
</metadata>
<g transform="translate(0.000000,308.000000) scale(0.100000,-0.100000)"
fill="#000000" stroke="none">
<path d="M215 2492 c-3 -3 -5 -139 -5 -302 0 -163 -2 -299 -5 -302 -3 -3 -25
-2 -50 2 -25 4 -45 3 -45 -2 0 -5 9 -26 20 -48 11 -22 20 -43 20 -48 0 -5 -18
-17 -40 -27 -62 -28 -58 -36 20 -34 39 1 73 0 75 -3 2 -2 5 -171 6 -376 2
-357 9 -449 23 -304 16 156 77 639 85 662 6 19 15 25 42 26 19 1 28 -1 22 -3
-7 -3 -13 -10 -13 -16 0 -5 3 -7 7 -4 3 4 12 -1 19 -11 16 -21 17 -32 4 -32
-5 0 -9 4 -7 9 1 5 -2 8 -6 8 -5 -1 -13 6 -18 16 -6 9 -14 15 -20 12 -5 -4 -9
-1 -9 6 0 7 -2 10 -5 7 -9 -8 6 -38 19 -38 23 0 35 -22 26 -46 -7 -18 -6 -22
5 -18 7 3 12 11 9 18 -3 7 2 13 10 13 8 0 18 -7 20 -14 3 -8 1 -11 -4 -8 -6 4
-7 -1 -3 -11 4 -10 2 -15 -3 -11 -6 3 -16 1 -24 -4 -13 -9 -13 -10 0 -6 8 2
21 -3 28 -12 11 -15 12 -14 6 0 -3 10 -1 20 5 24 6 3 9 0 6 -7 -4 -9 2 -14 16
-15 17 -2 18 1 9 13 -7 8 -8 14 -3 14 5 0 19 14 31 30 19 25 21 34 11 51 -8
16 -8 24 2 33 9 8 10 8 5 -1 -9 -17 4 -43 23 -43 14 -1 14 -2 1 -13 -8 -7 -16
-19 -18 -27 -5 -22 -23 -41 -33 -34 -5 3 -9 0 -9 -5 0 -6 6 -11 13 -11 8 0 7
-4 -3 -10 -13 -9 -13 -10 0 -10 13 0 13 -1 0 -10 -8 -5 -11 -13 -6 -17 5 -4
11 -3 13 4 2 7 10 10 17 7 7 -3 18 1 24 9 9 11 8 14 -3 14 -8 0 -12 -4 -9 -9
3 -4 1 -8 -5 -8 -5 0 -12 4 -15 9 -8 12 29 43 39 34 5 -5 4 -1 -3 8 -13 18 -6
53 9 43 5 -3 9 -2 8 3 -5 31 9 37 41 19 8 -5 12 -6 8 -1 -4 4 0 14 8 22 8 8
12 18 9 23 -3 5 0 12 6 16 8 4 9 3 5 -4 -11 -18 15 -14 29 4 11 16 12 16 18 0
4 -10 3 -15 -3 -11 -5 3 -7 0 -4 -8 3 -8 0 -18 -7 -23 -9 -5 -10 -2 -6 10 6
14 3 15 -13 6 -20 -11 -27 -21 -12 -19 4 1 9 0 12 -1 16 -6 39 -7 39 -2 -3 19
3 29 16 29 8 0 15 -4 15 -9 0 -4 6 -8 13 -8 6 1 -1 12 -18 26 -16 15 -24 23
-17 19 7 -4 21 -1 30 7 15 12 16 11 3 -4 -8 -11 -9 -18 -3 -18 6 0 16 8 21 18
6 9 11 12 11 5 0 -6 9 -15 20 -18 11 -4 18 -10 15 -14 -2 -5 1 -16 9 -26 11
-15 13 -16 13 -1 0 9 -5 16 -11 16 -6 0 -3 5 7 11 18 11 14 29 -6 29 -7 0 -6
-4 3 -11 10 -7 11 -9 2 -7 -27 7 -16 23 16 24 37 0 62 -20 36 -30 -11 -4 -15
-2 -11 7 3 8 0 14 -7 14 -6 0 -12 -8 -12 -18 0 -10 3 -16 7 -13 4 2 10 -2 12
-8 4 -10 6 -10 6 0 1 6 6 12 12 12 5 0 7 -5 3 -12 -4 -6 -3 -8 4 -4 6 3 9 17
6 29 -2 16 1 24 11 24 11 0 13 -6 9 -20 -4 -13 -2 -17 5 -13 6 4 11 17 11 29
1 22 1 22 14 -2 11 -20 14 -21 19 -7 4 10 3 15 -3 11 -6 -3 -10 -1 -10 4 0 18
43 5 52 -15 7 -16 8 -15 4 4 -4 20 -1 23 15 19 10 -3 19 -2 19 3 0 12 -40 21
-97 22 -41 1 -53 5 -53 17 0 12 -2 13 -9 3 -5 -9 -19 -11 -42 -6 -35 6 -75 11
-117 13 -16 1 -21 5 -16 14 6 9 4 9 -7 1 -8 -6 -25 -10 -39 -7 -14 2 -36 5
-50 7 -14 2 -29 4 -34 5 -4 0 -5 9 -2 18 6 15 4 15 -14 -2 -11 -10 -23 -16
-26 -12 -9 9 6 28 17 22 5 -4 9 1 9 9 0 8 6 14 13 12 6 -1 9 -1 5 1 -13 7 -9
41 5 47 6 3 1 3 -13 0 l-25 -5 24 20 c14 13 18 21 10 21 -12 0 -12 2 0 9 9 6
10 11 2 15 -6 4 -8 12 -5 18 4 6 10 5 15 -3 6 -10 8 -7 6 9 -2 12 -9 28 -15
34 -9 9 -10 6 -7 -11 3 -19 2 -21 -11 -11 -10 9 -11 16 -4 26 8 9 6 15 -7 23
-16 10 -15 10 5 8 13 -2 28 -10 33 -18 6 -10 9 -10 9 -1 0 19 -4 27 -13 24 -4
-1 -7 2 -7 8 0 5 -8 7 -17 3 -10 -3 -15 -3 -12 1 4 4 17 9 29 11 13 3 28 9 34
15 8 8 5 9 -9 4 -18 -6 -17 -4 5 20 14 15 25 31 25 34 0 4 11 6 25 5 14 -1 17
1 8 4 -10 2 -18 8 -18 12 0 4 -10 8 -22 8 -18 2 -20 0 -8 -7 12 -8 12 -10 1
-10 -7 0 -11 -6 -7 -15 3 -8 0 -14 -7 -12 -7 1 -11 -4 -9 -11 1 -8 -2 -11 -9
-6 -7 4 -9 3 -6 -2 3 -6 -3 -15 -14 -22 -11 -7 -19 -8 -19 -2 0 5 5 10 11 10
6 0 9 7 5 15 -3 8 -2 14 2 14 20 -3 25 2 12 12 -13 9 -13 10 2 6 9 -3 19 1 22
9 5 12 1 14 -17 9 l-22 -6 23 14 c12 7 20 15 18 18 -3 3 5 5 17 5 12 0 27 -6
33 -14 9 -12 12 -13 19 -2 6 9 4 11 -6 5 -12 -8 -12 -6 0 8 9 11 18 14 25 8
17 -14 28 -14 37 1 6 9 9 9 9 1 0 -6 9 -10 20 -8 11 2 18 0 15 -6 -4 -5 -1 -9
5 -9 6 0 8 -5 4 -12 -4 -6 -3 -8 3 -5 6 4 16 0 23 -8 10 -12 15 -12 35 1 21
14 24 14 34 -3 6 -10 11 -13 11 -6 0 25 -46 39 -55 16 -5 -14 -8 -13 -25 2
-22 20 -26 35 -9 35 5 0 8 -4 5 -9 -3 -5 1 -12 10 -15 11 -4 15 -2 11 7 -3 8
1 14 9 14 8 0 14 -5 14 -10 0 -5 8 -3 17 4 11 10 14 10 9 1 -5 -9 -1 -11 16
-8 13 3 23 5 23 6 0 1 10 3 22 4 12 1 20 -1 18 -5 -3 -4 2 -12 11 -19 12 -10
17 -11 27 -1 9 10 8 11 -5 6 -10 -4 -18 -3 -18 2 0 5 18 9 39 9 22 0 38 -3 35
-8 -6 -10 10 -11 20 -1 12 12 94 9 89 -3 -5 -13 -34 -15 -49 -3 -7 5 -11 3
-11 -6 0 -8 4 -12 9 -9 4 3 8 0 8 -7 0 -7 3 -9 7 -6 3 4 13 1 21 -6 9 -7 13
-7 9 -1 -9 15 34 52 56 49 10 -2 25 -12 34 -22 13 -16 14 -16 9 0 -8 25 9 21
23 -5 l11 -23 -6 23 c-3 12 -1 22 5 22 11 0 15 -13 12 -37 -1 -6 3 -14 9 -18
6 -4 7 1 3 11 -5 13 -3 15 7 9 8 -5 11 -4 6 3 -3 6 -1 14 6 19 18 12 91 13
105 1 7 -6 14 -5 18 2 4 6 13 9 19 7 7 -3 19 -1 27 4 12 7 12 9 -1 10 -8 1
-23 0 -34 -1 -10 -1 -15 3 -12 8 4 6 1 14 -5 18 -8 4 -9 3 -5 -4 4 -7 1 -12
-8 -12 -8 0 -17 6 -19 13 -4 8 -6 8 -6 1 -1 -9 -12 -9 -42 -2 -30 8 -39 15
-35 27 5 13 4 13 -7 -1 -8 -10 -16 -16 -18 -13 -4 4 -49 15 -79 19 -23 3 -41
16 -35 26 3 5 0 12 -6 16 -7 4 -9 3 -6 -2 3 -6 1 -16 -4 -24 -8 -13 -10 -13
-18 -1 -5 8 -14 10 -21 6 -8 -5 -18 -1 -27 10 -7 11 -13 13 -13 7 0 -7 -5 -12
-11 -12 -6 0 -8 7 -5 16 6 14 4 15 -10 4 -13 -12 -17 -11 -25 1 -5 8 -9 9 -9
2 0 -6 -8 -10 -17 -8 -10 2 -18 4 -18 5 0 1 -12 4 -28 6 -15 1 -34 10 -43 18
-19 20 -31 21 -15 2 9 -11 5 -11 -24 -2 -19 6 -35 14 -35 18 0 5 -5 8 -11 8
-5 0 -8 -4 -5 -9 4 -5 -3 -7 -14 -4 -11 3 -18 8 -15 12 2 4 -9 5 -26 3 -17 -3
-29 0 -29 7 0 6 -5 11 -11 11 -5 0 -7 -6 -3 -12 6 -10 4 -10 -7 -2 -8 6 -22
12 -31 13 -42 3 -48 5 -48 15 0 6 -5 4 -11 -4 -8 -12 -10 -10 -5 10 4 21 3 22
-7 10 -15 -19 -56 -18 -68 1 -7 11 -9 11 -9 1 0 -10 -5 -10 -20 -2 -11 6 -25
8 -30 5 -6 -4 -13 1 -16 10 -4 10 -9 13 -13 6 -4 -7 -44 -2 -119 13 -61 13
-114 21 -117 18z m218 -227 c9 2 15 0 12 -5 -3 -4 2 -13 10 -20 8 -7 15 -17
15 -22 0 -6 -9 0 -20 13 -10 13 -19 19 -20 14 0 -6 6 -17 13 -25 10 -12 9 -12
-5 -1 -24 18 -23 3 2 -34 11 -16 20 -34 20 -40 -1 -5 -8 3 -16 19 -11 20 -18
25 -24 16 -6 -9 -10 -8 -17 5 -9 16 -11 16 -16 1 -4 -10 -3 -14 2 -11 13 8 24
-12 14 -27 -12 -21 -12 -35 3 -35 7 0 15 6 18 13 3 8 0 11 -10 7 -14 -5 -14
-3 -3 16 9 13 15 17 18 9 2 -7 9 -19 15 -27 8 -11 8 -13 -1 -7 -19 11 -16 -5
5 -21 15 -13 15 -13 -5 -3 -15 7 -23 7 -23 1 0 -6 -8 -7 -17 -4 -15 6 -16 5
-3 -9 11 -11 17 -12 22 -4 6 8 8 8 8 -1 0 -7 7 -10 18 -7 14 5 14 4 2 -4 -8
-6 -18 -8 -22 -6 -4 3 -8 0 -8 -6 0 -6 -4 -9 -9 -5 -13 7 -24 -12 -15 -27 5
-8 10 -7 18 4 10 13 14 12 31 -5 l20 -20 -20 11 c-16 8 -23 5 -39 -17 l-20
-26 22 19 c12 11 22 14 22 9 0 -6 -7 -16 -15 -23 -8 -7 -15 -17 -15 -22 0 -5
7 -2 16 6 8 9 21 16 27 16 7 0 4 -5 -6 -11 -13 -8 -15 -14 -7 -30 6 -11 16
-16 22 -13 7 5 8 2 4 -5 -6 -9 -12 -9 -24 2 -21 18 -39 12 -53 -16 -9 -20 -9
-20 4 -5 8 10 17 15 21 11 3 -3 -1 -14 -9 -23 -13 -14 -13 -17 0 -17 8 0 11 5
8 10 -3 6 -1 7 5 3 7 -4 9 3 6 21 -5 27 -4 27 10 8 13 -18 13 -22 0 -37 -9 -9
-23 -15 -32 -13 -9 2 -25 4 -34 4 -15 1 -17 9 -14 54 9 110 19 186 25 183 4
-3 5 12 3 32 -2 21 1 48 5 61 9 22 10 22 26 6 9 -9 17 -12 17 -6 0 6 -9 15
-19 21 -11 5 -18 18 -16 27 2 10 4 22 4 27 1 5 7 4 14 -1 6 -6 20 -9 30 -8z
m137 -19 c0 -2 -7 -7 -16 -10 -8 -3 -12 -2 -9 4 6 10 25 14 25 6z m-40 -66 c0
-5 -2 -10 -4 -10 -3 0 -8 5 -11 10 -3 6 -1 10 4 10 6 0 11 -4 11 -10z m-20
-80 c0 -5 -5 -10 -11 -10 -5 0 -7 5 -4 10 3 6 8 10 11 10 2 0 4 -4 4 -10z m13
-35 c-3 -9 -8 -14 -10 -11 -3 3 -2 9 2 15 9 16 15 13 8 -4z m-58 -15 c-3 -5
-12 -10 -18 -10 -7 0 -6 4 3 10 19 12 23 12 15 0z m29 -8 c3 -5 -1 -9 -9 -9
-8 0 -12 4 -9 9 3 4 7 8 9 8 2 0 6 -4 9 -8z m52 -39 c0 -16 -8 -35 -17 -44
-15 -15 -17 -14 -29 5 -12 18 -11 19 2 9 19 -16 32 -5 16 14 -8 11 -7 12 6 7
9 -3 16 -1 16 5 0 6 -5 11 -11 11 -5 0 -7 5 -4 10 11 18 21 10 21 -17z m-81
-13 c3 -6 -1 -7 -9 -4 -18 7 -21 14 -7 14 6 0 13 -4 16 -10z m75 -67 c-1 -20
-16 -31 -30 -23 -13 8 -12 10 3 10 10 0 15 5 12 10 -3 6 -1 10 4 10 6 0 11 -3
11 -7z m-50 -19 c0 -8 -19 -13 -24 -6 -3 5 1 9 9 9 8 0 15 -2 15 -3z m20 -18
c0 -3 -4 -8 -10 -11 -5 -3 -10 -1 -10 4 0 6 5 11 10 11 6 0 10 -2 10 -4z m95
-144 c-2 -30 -14 -40 -45 -37 -30 3 -56 15 -31 15 7 0 9 4 6 10 -3 6 1 7 9 4
9 -3 16 -10 16 -16 0 -5 5 -6 10 -3 6 4 7 11 4 17 -4 6 -2 8 3 5 6 -4 13 0 17
8 7 20 13 19 11 -3z m-184 -35 c-10 -9 -11 -8 -5 6 3 10 9 15 12 12 3 -3 0
-11 -7 -18z m23 -29 c-3 -4 -9 -8 -15 -8 -5 0 -9 4 -9 8 0 5 7 9 15 9 8 0 12
-4 9 -9z m46 0 c0 -4 -4 -8 -9 -8 -6 0 -12 4 -15 8 -3 5 1 9 9 9 8 0 15 -4 15
-9z m-24 -20 c5 -7 3 -8 -6 -3 -10 6 -12 4 -7 -8 3 -10 2 -17 -2 -17 -14 0
-21 28 -8 34 7 2 13 5 14 5 1 1 5 -4 9 -11z m54 -32 c0 -2 -8 -10 -17 -17 -16
-13 -17 -12 -4 4 13 16 21 21 21 13z"/>
<path d="M411 2251 c-8 -5 -9 -11 -3 -15 5 -3 12 1 16 9 6 17 6 18 -13 6z"/>
<path d="M375 1961 c-3 -5 -2 -12 3 -15 5 -3 9 1 9 9 0 17 -3 19 -12 6z"/>
<path d="M1515 2409 c39 -35 94 -87 124 -115 l55 -51 -32 -154 c-17 -85 -79
-381 -137 -658 -58 -277 -104 -505 -103 -507 2 -2 26 17 53 41 28 25 53 45 56
45 3 0 29 -23 57 -51 29 -28 52 -45 53 -38 0 8 3 32 5 54 3 22 6 66 7 97 1 57
12 73 40 62 8 -3 14 -11 14 -18 0 -8 -6 -12 -14 -9 -7 3 -10 10 -6 17 4 7 3 8
-4 1 -6 -5 -14 -21 -18 -35 -7 -23 -6 -24 7 -6 13 16 15 16 15 2 0 -9 -4 -16
-8 -16 -4 0 -6 -8 -4 -18 2 -9 4 -17 5 -17 1 0 7 -25 11 -52 4 -21 -2 -34 -12
-27 -8 4 -7 9 2 15 10 6 10 9 2 9 -7 0 -10 6 -7 14 3 8 1 17 -4 20 -5 3 -12
-3 -15 -14 -3 -11 0 -20 5 -20 7 0 7 -5 1 -13 -10 -13 -12 -36 -3 -38 12 -1
65 23 72 34 6 9 8 8 8 -2 0 -11 4 -10 16 5 8 10 13 14 10 7 -4 -6 -2 -14 4
-18 9 -6 15 8 11 29 -1 5 6 3 15 -5 16 -12 17 -12 11 3 -4 13 -2 15 10 11 10
-4 14 -2 10 4 -4 6 0 16 8 23 8 7 15 9 15 4 0 -5 7 2 16 14 8 12 20 20 25 17
5 -4 9 -2 9 2 0 7 93 68 181 118 20 11 278 166 295 177 7 4 18 0 25 -9 12 -15
12 -16 -6 -10 -20 7 -20 7 -1 -8 17 -13 18 -15 3 -15 -9 0 -17 -5 -17 -11 0
-5 -5 -7 -10 -4 -6 4 -7 11 -4 17 4 7 2 8 -4 4 -9 -5 -9 -12 0 -25 10 -17 12
-17 32 3 23 23 29 43 15 52 -5 3 -9 9 -9 13 0 11 83 56 99 53 7 -2 10 1 7 6
-5 8 62 52 75 49 4 -1 17 7 29 18 l23 20 -14 -22 c-8 -13 -17 -23 -22 -23 -4
0 -5 -5 -1 -12 4 -6 3 -8 -4 -4 -6 3 -13 2 -17 -4 -3 -5 -1 -10 4 -10 6 0 11
-5 11 -11 0 -8 -4 -9 -13 0 -14 11 -27 5 -27 -11 0 -5 5 -6 10 -3 6 3 10 1 10
-4 0 -14 -17 -14 -25 -1 -5 8 -11 7 -21 -1 -14 -12 -10 -29 7 -29 6 0 7 5 3
12 -4 7 -3 8 5 4 18 -12 2 -28 -21 -20 -14 4 -18 2 -14 -5 4 -6 2 -11 -3 -11
-13 0 -14 6 -2 29 8 13 5 17 -12 18 -15 2 -18 0 -8 -6 9 -6 10 -11 2 -15 -6
-4 -8 -12 -5 -18 5 -7 1 -9 -9 -5 -11 4 -17 1 -17 -9 0 -9 5 -12 12 -8 7 4 8
3 4 -4 -4 -7 -3 -12 3 -12 5 0 12 6 14 13 4 9 6 9 6 0 1 -6 -4 -15 -11 -19
-15 -10 -48 33 -42 54 4 12 3 13 -3 4 -12 -16 -4 -74 9 -66 5 3 12 -3 15 -15
3 -11 9 -19 13 -16 5 3 12 0 16 -7 4 -7 3 -10 -1 -5 -5 4 -19 -3 -32 -15 -13
-12 -23 -16 -23 -9 0 7 -5 9 -11 6 -6 -4 -5 2 3 14 7 12 14 17 16 11 6 -18 20
-11 15 8 -2 10 -13 18 -23 19 -12 1 -17 -3 -14 -11 3 -7 -2 -19 -11 -26 -21
-18 -19 -30 8 -30 18 0 19 -2 7 -10 -9 -6 -10 -10 -3 -10 6 0 15 5 18 10 4 6
11 8 16 4 5 -3 8 0 7 7 -2 6 3 14 11 17 9 3 11 0 6 -9 -6 -10 -5 -11 4 -3 20
18 22 54 3 54 -15 1 -15 2 1 11 14 8 22 8 30 -1 9 -10 9 -11 -1 -5 -12 6 -12
3 -1 -16 7 -13 11 -25 10 -27 -2 -2 0 -6 3 -9 3 -3 3 7 0 22 -5 26 -3 27 13
14 12 -10 11 -6 -5 18 -12 17 -22 35 -22 40 0 4 5 0 11 -10 6 -9 15 -15 21
-11 7 4 6 9 -3 15 -7 4 -11 10 -9 13 3 2 16 -4 30 -15 14 -11 18 -17 9 -13
-27 9 -31 -12 -6 -32 l22 -19 -20 24 c-17 21 -18 23 -3 18 10 -3 20 -2 23 4 4
5 12 7 18 3 7 -3 3 3 -9 13 -24 22 -28 54 -6 45 11 -4 13 -1 7 7 -6 10 -3 11
14 2 11 -7 21 -16 21 -21 0 -14 -18 -21 -25 -10 -3 5 -12 10 -18 10 -7 0 -3
-7 7 -15 10 -8 23 -12 27 -9 5 3 10 0 10 -5 3 -26 4 -30 12 -35 4 -3 5 -3 2 1
-3 3 1 13 8 21 8 10 8 13 1 9 -7 -4 -15 0 -18 9 -5 13 -2 15 13 11 13 -3 18
-1 15 8 -3 7 -1 16 5 20 6 3 11 -2 11 -12 0 -13 4 -11 14 9 8 15 13 38 12 52
-2 14 1 23 5 20 5 -3 18 0 30 7 15 8 19 8 15 0 -4 -6 0 -11 9 -11 9 0 13 -5
10 -10 -3 -6 -2 -10 3 -10 6 0 13 7 16 16 5 14 9 14 24 3 15 -13 16 -12 4 3
-9 11 -10 18 -2 23 5 3 10 1 10 -4 0 -6 5 -11 11 -11 8 0 8 4 -1 15 -6 8 -9
20 -5 27 4 7 0 5 -8 -4 -13 -16 -14 -15 -14 15 -1 22 1 26 6 14 6 -17 8 -17
25 2 15 16 22 18 33 9 10 -8 17 -8 26 1 9 10 8 11 -7 5 -12 -5 -17 -4 -13 3 8
13 -25 13 -42 -1 -12 -9 -13 -8 -6 3 6 11 4 13 -7 8 -12 -4 -14 -1 -11 14 4
14 1 18 -10 13 -8 -3 -18 -1 -22 5 -3 7 0 8 9 5 8 -3 19 2 24 13 9 16 7 19
-11 20 -18 2 -19 0 -7 -8 13 -9 13 -10 0 -6 -8 2 -14 11 -14 20 1 9 -3 14 -8
11 -6 -4 -8 3 -3 17 5 19 4 21 -4 9 -6 -8 -11 -11 -11 -6 0 5 -9 1 -20 -9 -11
-10 -20 -15 -20 -10 0 4 -7 2 -15 -5 -13 -11 -14 -10 -9 4 4 10 13 15 20 12
17 -6 39 30 24 39 -12 7 -50 -12 -50 -25 0 -22 -16 -8 -18 15 -1 14 3 25 8 25
5 0 6 -8 3 -17 -6 -15 -5 -15 8 -3 8 7 15 23 16 34 1 12 -1 15 -4 9 -3 -7 -15
-13 -28 -13 -13 0 -27 -4 -30 -10 -3 -5 -12 -10 -18 -10 -7 0 -6 4 3 10 8 5
16 22 17 37 2 20 0 24 -7 13 -5 -8 -7 -17 -4 -21 2 -4 -1 -11 -7 -15 -8 -4 -9
-3 -5 4 7 11 -6 17 -27 13 -5 -1 -6 3 -2 9 6 10 -7 14 -33 11 -7 -1 -15 5 -18
14 -5 13 -9 13 -23 3 -14 -11 -14 -11 -4 2 15 20 3 41 -25 43 -11 0 -18 5 -16
9 3 4 0 8 -5 8 -6 0 -11 5 -11 12 0 6 7 4 18 -5 10 -10 21 -14 25 -11 3 3 13
-6 22 -20 10 -14 21 -23 26 -20 5 3 6 -2 3 -11 -5 -13 -1 -15 26 -10 19 3 29
2 26 -4 -4 -5 -2 -12 3 -15 5 -4 13 -1 17 5 8 13 -16 31 -33 24 -18 -6 -31 17
-27 50 2 24 1 27 -7 12 -6 -9 -8 -21 -4 -26 3 -5 1 -12 -5 -16 -10 -6 -15 9
-10 30 1 6 -2 7 -6 3 -4 -4 -13 -3 -21 3 -7 6 -13 9 -13 5 0 -3 -9 2 -20 12
-19 16 -20 18 -3 30 16 11 15 12 -7 9 -35 -6 -54 10 -38 32 7 9 3 8 -11 -4
-22 -19 -23 -19 -37 0 -8 10 -14 14 -14 7 0 -14 41 -43 52 -36 4 3 8 0 8 -6 0
-7 6 -10 13 -7 8 3 14 -1 14 -9 0 -7 -4 -11 -9 -8 -5 3 -17 0 -26 -8 -15 -12
-16 -11 -3 5 15 19 2 24 -16 6 -16 -16 -37 -1 -23 16 8 10 5 17 -12 29 -20 15
-24 15 -34 1 -12 -16 -29 -21 -20 -6 4 5 3 11 -1 14 -5 2 -2 2 5 0 8 -1 12 2
10 9 -6 16 -46 18 -52 2 -3 -7 2 -15 10 -18 8 -3 14 -10 14 -16 0 -5 -9 -2
-19 7 -14 12 -17 21 -11 33 5 10 7 20 4 23 -3 3 2 16 10 29 13 20 14 25 2 25
-8 0 -12 -6 -9 -14 3 -9 0 -11 -10 -7 -13 4 -15 -1 -12 -25 5 -35 -7 -47 -25
-26 -7 8 -17 12 -22 9 -6 -4 -5 2 1 14 15 28 14 32 -4 26 -8 -4 -13 -10 -10
-14 3 -5 -4 -6 -16 -3 -11 3 -26 14 -32 24 -7 11 -16 19 -22 19 -13 0 -112 70
-99 70 5 1 -6 7 -23 15 -18 8 -33 19 -33 25 0 5 -6 10 -13 10 -8 0 -22 9 -32
20 -10 11 -20 18 -23 16 -2 -3 -40 21 -85 53 l-80 57 2 70 c1 38 5 78 8 89 3
11 2 17 -2 13 -4 -3 -14 -36 -24 -73 -9 -36 -19 -67 -22 -68 -3 -1 -47 27 -99
63 -145 100 -161 107 -85 39z m308 -276 c38 -36 61 -64 54 -67 -7 -2 -4 -5 7
-5 21 -1 78 -46 69 -55 -4 -3 -1 -6 6 -6 11 0 209 -174 433 -380 l60 -55 -297
-238 c-256 -205 -299 -236 -313 -225 -13 11 -15 10 -9 -4 3 -10 3 -20 -2 -22
-10 -6 -11 26 -1 39 4 6 6 18 5 28 -2 9 1 15 6 11 5 -3 9 0 9 5 0 6 -8 11 -17
12 -17 0 -17 1 0 8 23 9 23 19 0 37 -13 10 -14 13 -2 9 17 -6 20 19 4 45 -7
13 -6 13 7 2 13 -10 17 -10 22 4 5 14 9 14 23 3 15 -13 15 -12 3 8 -13 20 -15
20 -27 5 -8 -12 -12 -13 -13 -4 0 7 -4 11 -8 8 -4 -2 -9 5 -9 16 -2 20 -1 20
13 2 15 -18 15 -18 10 4 -6 31 3 54 18 45 6 -3 8 -3 4 2 -4 4 -3 14 3 22 9 9
8 17 0 27 -9 10 -9 16 -1 21 8 5 5 11 -7 21 -22 17 -37 18 -27 2 4 -7 3 -8 -4
-4 -6 4 -9 13 -5 22 4 11 9 12 19 3 9 -8 14 -8 14 -1 0 6 -5 14 -11 17 -5 4
-9 19 -7 33 2 16 -2 27 -9 27 -20 0 -23 11 -3 12 11 1 20 -3 20 -8 0 -6 5 -7
12 -3 7 5 5 11 -7 21 -11 7 -13 13 -6 13 7 0 10 4 6 9 -3 6 7 8 22 5 19 -3 23
-1 15 4 -8 5 -13 13 -12 18 1 5 -4 10 -12 12 -9 2 -8 0 2 -8 12 -10 12 -11 -5
-4 -11 4 -31 7 -44 7 -18 -1 -20 1 -10 8 8 5 23 6 34 2 18 -5 19 -4 5 12 -9
11 -10 16 -2 11 7 -4 12 -2 12 4 0 6 5 8 10 5 6 -3 10 -1 10 5 0 8 6 8 23 0
21 -11 21 -11 -2 8 -16 13 -20 21 -12 26 6 4 9 12 6 17 -4 5 2 10 12 10 17 1
17 2 0 6 -9 2 -15 9 -12 14 4 5 1 9 -5 9 -6 0 -8 5 -5 10 5 8 11 8 20 0 9 -8
15 -8 20 0 4 6 1 9 -7 8 -7 -2 -12 2 -11 9 3 11 -42 53 -57 53 -4 0 -7 -7 -7
-15 0 -8 5 -14 11 -13 19 2 46 -14 40 -24 -4 -6 -10 -5 -16 3 -8 11 -9 10 -4
-3 4 -13 1 -16 -12 -12 -15 5 -15 4 -1 -8 15 -13 22 -71 7 -62 -4 3 -8 0 -8
-5 0 -6 5 -11 12 -11 6 0 9 -3 5 -6 -3 -3 -13 -2 -22 3 -15 9 -16 11 -1 26 9
9 18 18 19 21 4 8 -36 45 -44 40 -13 -8 -11 -44 2 -44 6 0 8 7 4 18 -5 14 -4
15 6 5 16 -16 -1 -36 -23 -28 -18 7 -18 26 0 47 6 8 9 18 5 21 -3 4 0 7 8 7
11 0 11 2 -1 10 -9 6 -10 10 -3 10 6 0 10 9 8 20 -2 11 0 18 4 16 4 -3 8 1 8
9 0 11 -4 12 -14 4 -8 -8 -13 -8 -13 -1 0 6 6 12 12 14 9 3 8 9 -5 22 -19 20
-21 26 -8 26 5 0 19 -16 30 -36 17 -28 25 -34 35 -25 7 6 16 8 20 4 3 -4 14
-8 22 -9 9 -1 13 1 9 4 -4 4 -12 7 -18 7 -5 0 -12 6 -15 14 -3 9 0 11 8 6 9
-5 11 -4 6 3 -4 7 -2 12 5 12 7 0 9 3 6 6 -4 4 -13 1 -22 -6 -9 -7 -18 -10
-22 -6 -4 3 2 13 13 21 11 8 14 15 7 15 -7 0 -13 5 -13 11 0 6 7 8 16 5 8 -3
13 -2 9 3 -3 5 1 12 7 15 9 4 8 5 -2 5 -28 -2 -40 1 -40 11 0 5 8 7 18 4 14
-5 14 -4 2 4 -8 6 -18 8 -22 6 -4 -3 -8 -1 -8 4 0 17 13 21 34 10 19 -10 20
-10 7 6 -8 9 -19 15 -25 13 -6 -3 -19 0 -29 5 -16 8 -17 7 -7 -11 13 -26 5
-42 -18 -34 -14 5 -13 2 3 -11 20 -17 19 -17 -8 -13 -30 5 -25 -9 6 -15 10 -1
17 -6 15 -9 -2 -3 4 -14 12 -24 14 -17 14 -18 -8 -6 -12 7 -20 17 -16 22 4 7
-1 7 -15 0 -17 -10 -19 -16 -11 -31 13 -24 13 -33 -1 -24 -7 4 -7 -1 1 -16 11
-20 10 -21 -8 -16 -12 4 -24 2 -28 -5 -4 -7 -3 -9 4 -6 12 8 42 -1 42 -13 0
-5 -10 -6 -22 -4 -16 3 -18 2 -8 -3 14 -7 16 -15 11 -40 0 -3 -11 2 -23 13
l-23 19 19 -22 c14 -17 16 -23 5 -23 -9 0 -10 -3 -4 -8 6 -4 11 -16 10 -27 0
-11 6 -21 13 -21 6 -1 17 -2 24 -3 16 -1 4 -12 -19 -15 -10 -2 -23 4 -29 12
-9 13 -11 12 -11 -2 0 -9 4 -16 9 -16 5 0 4 -8 -1 -18 -7 -13 -4 -24 10 -42
10 -14 19 -29 18 -35 0 -5 -4 -2 -9 7 -9 15 -13 15 -40 1 -36 -17 -38 -23 -7
-16 16 3 18 2 8 -5 -9 -7 -10 -12 -2 -16 10 -6 15 6 12 27 0 4 3 7 9 7 5 0 10
-7 10 -16 0 -8 5 -12 10 -9 6 3 10 1 10 -5 0 -7 -7 -9 -16 -6 -12 5 -15 2 -10
-10 4 -12 2 -15 -9 -10 -38 15 -48 16 -25 2 14 -8 21 -16 15 -16 -5 0 -2 -7 8
-14 18 -14 17 -14 -2 -21 -20 -6 -20 -8 -5 -36 13 -27 17 -29 32 -17 15 12 16
11 3 -5 -10 -13 -17 -15 -27 -6 -7 6 -17 8 -22 5 -5 -3 -9 1 -9 9 0 8 5 11 11
8 6 -4 4 1 -4 11 -13 16 -12 20 4 32 18 12 18 13 -1 11 -16 -1 -20 -8 -19 -32
1 -18 -4 -33 -14 -37 -13 -6 -12 -7 2 -7 11 -1 15 -6 12 -16 -5 -11 -10 -13
-19 -5 -10 8 -15 8 -21 -1 -4 -7 -3 -9 4 -5 6 3 16 -2 22 -13 6 -12 6 -22 1
-25 -5 -4 -12 0 -14 6 -3 7 -6 9 -6 3 -1 -18 17 -38 28 -31 6 4 9 11 6 16 -3
4 2 11 10 14 13 4 14 2 5 -14 -6 -11 -7 -20 -3 -20 4 0 2 -5 -5 -12 -8 -8 -8
-15 -1 -24 7 -9 6 -12 -5 -10 -9 1 -19 6 -23 11 -4 4 -3 5 3 2 6 -3 11 0 11 8
0 8 -4 15 -9 15 -8 0 -12 -15 -9 -37 1 -6 -3 -14 -9 -18 -13 -8 -13 -25 0 -25
5 0 9 5 7 11 -1 6 5 13 14 14 9 2 16 -3 16 -11 0 -7 -5 -12 -11 -11 -6 1 -10
-6 -8 -15 3 -22 -16 -34 -24 -14 -3 9 -10 16 -15 16 -5 0 -2 -11 7 -25 9 -14
21 -22 28 -19 6 3 2 -2 -9 -11 -11 -9 -19 -23 -17 -31 2 -8 -3 -14 -11 -14
-11 0 -13 14 -12 58 1 31 3 85 4 120 1 44 4 61 12 56 8 -5 9 -2 2 10 -5 9 -6
52 -2 98 4 46 11 135 14 198 4 63 9 122 10 130 2 8 6 71 10 139 4 69 9 132 10
140 2 9 4 38 4 64 1 57 2 57 94 -30z m72 -177 c-2 -21 -19 -26 -21 -6 -1 6 -3
12 -4 15 -5 10 -6 30 -2 38 7 14 29 -24 27 -47z m5 -61 c0 -15 -21 -12 -30 5
-11 20 -10 21 9 10 12 -6 21 -13 21 -15z m462 -9 c7 4 8 2 4 -4 -11 -18 -26
-14 -25 6 0 10 3 12 6 4 2 -6 10 -9 15 -6z m88 -46 c0 -5 -5 -10 -11 -10 -5 0
-7 5 -4 10 3 6 8 10 11 10 2 0 4 -4 4 -10z m-25 -30 c-3 -5 -12 -10 -18 -10
-7 0 -6 4 3 10 19 12 23 12 15 0z m40 -20 c2 -12 1 -20 -2 -16 -4 4 -8 16 -10
28 -4 28 6 18 12 -12z m-635 6 c0 -2 -8 -10 -17 -17 -16 -13 -17 -12 -4 4 13
16 21 21 21 13z m672 -10 c7 4 8 2 4 -5 -9 -13 -26 -5 -25 12 0 9 2 8 6 -1 2
-6 10 -9 15 -6z m-698 -111 c-5 -11 -2 -14 12 -9 14 5 16 4 8 -5 -14 -15 -44
-3 -37 15 3 8 9 14 14 14 4 0 6 -7 3 -15z m49 8 c-7 -2 -19 -2 -25 0 -7 3 -2
5 12 5 14 0 19 -2 13 -5z m882 -13 c-3 -5 -11 -10 -16 -10 -6 0 -7 5 -4 10 3
6 11 10 16 10 6 0 7 -4 4 -10z m16 -47 c-12 -20 -14 -14 -5 12 4 9 9 14 11 11
3 -2 0 -13 -6 -23z m-901 -12 c0 -5 -7 -11 -14 -14 -10 -4 -13 -1 -9 9 6 15
23 19 23 5z m917 -13 c-3 -8 -6 -5 -6 6 -1 11 2 17 5 13 3 -3 4 -12 1 -19z
m-962 -58 c-3 -5 -12 -10 -18 -10 -7 0 -6 4 3 10 19 12 23 12 15 0z m19 -18
c3 -5 -1 -9 -9 -9 -8 0 -12 4 -9 9 3 4 7 8 9 8 2 0 6 -4 9 -8z m901 -21 c-9
-8 -36 -10 -30 -2 2 4 11 8 20 8 8 0 13 -3 10 -6z m-907 -9 c15 11 15 11 4 -4
-13 -17 -36 -18 -49 -3 -4 4 -2 5 5 1 7 -4 12 -2 13 6 0 10 2 11 6 0 4 -10 8
-10 21 0z m849 -5 c0 -8 -6 -14 -14 -14 -17 0 -17 14 0 20 6 3 12 6 13 6 0 1
1 -5 1 -12z m131 -35 c-7 -8 -15 -9 -21 -3 -6 6 -4 15 4 24 18 19 33 -1 17
-21z m-938 -22 c-24 -15 -36 -11 -14 4 10 8 21 12 24 10 2 -3 -2 -9 -10 -14z
m830 0 c0 -5 -5 -10 -11 -10 -5 0 -7 5 -4 10 3 6 8 10 11 10 2 0 4 -4 4 -10z
m-937 -20 c-9 -11 -19 -17 -21 -15 -6 6 18 35 29 35 5 0 1 -9 -8 -20z m891
-11 c-3 -5 -1 -9 5 -9 5 0 12 6 14 13 3 6 6 7 6 1 1 -5 -6 -19 -15 -30 -8 -10
-13 -13 -9 -6 3 6 1 12 -5 12 -7 0 -10 6 -7 14 3 7 0 20 -6 27 -10 11 -9 11 5
0 10 -7 15 -17 12 -22z m-769 -9 c-5 -8 -11 -8 -17 -2 -6 6 -7 16 -3 22 5 8
11 8 17 2 6 -6 7 -16 3 -22z m820 11 c3 -5 2 -12 -3 -15 -5 -3 -9 1 -9 9 0 17
3 19 12 6z m-930 -140 c3 -5 2 -12 -3 -15 -5 -3 -9 1 -9 9 0 17 3 19 12 6z
m60 0 c3 -5 2 -12 -3 -15 -5 -3 -9 1 -9 9 0 17 3 19 12 6z m-88 -33 c-3 -8 -6
-5 -6 6 -1 11 2 17 5 13 3 -3 4 -12 1 -19z m49 -10 c4 -7 4 -10 -1 -6 -4 4
-15 2 -24 -5 -14 -11 -14 -10 -2 6 16 20 18 21 27 5z m38 -16 c3 -5 -1 -9 -9
-9 -8 0 -12 4 -9 9 3 4 7 8 9 8 2 0 6 -4 9 -8z m-93 -39 c13 -17 13 -17 -6 -3
-11 8 -22 16 -24 17 -2 2 0 3 6 3 6 0 17 -8 24 -17z m50 -36 c-10 -9 -11 -8
-5 6 3 10 9 15 12 12 3 -3 0 -11 -7 -18z m-78 -74 c-5 -12 -3 -14 7 -8 9 6 11
4 5 -4 -5 -9 -11 -9 -17 -3 -6 6 -7 15 -4 21 11 17 16 13 9 -6z m107 13 c0 -2
-7 -7 -16 -10 -8 -3 -12 -2 -9 4 6 10 25 14 25 6z m-87 -73 c-3 -7 -6 -13 -8
-13 -2 0 -5 6 -8 13 -3 8 1 14 8 14 7 0 11 -6 8 -14z m-48 -42 c3 -5 2 -12 -3
-15 -5 -3 -9 1 -9 9 0 17 3 19 12 6z"/>
<path d="M1866 1867 c7 -20 27 -27 43 -17 10 6 10 9 1 15 -6 4 -14 4 -17 1 -3
-3 -12 -1 -20 6 -11 8 -12 7 -7 -5z"/>
<path d="M1910 1837 c0 -2 6 -10 14 -16 11 -9 16 -9 22 1 4 7 4 10 -1 6 -4 -4
-14 -3 -22 3 -7 6 -13 9 -13 6z"/>
<path d="M1860 1810 c-8 -5 -12 -12 -9 -15 4 -3 12 1 19 10 14 17 11 19 -10 5z"/>
<path d="M1880 1660 c-13 -8 -13 -10 2 -10 9 0 20 5 23 10 8 13 -5 13 -25 0z"/>
<path d="M1755 1640 c-3 -5 -1 -10 4 -10 6 0 11 5 11 10 0 6 -2 10 -4 10 -3 0
-8 -4 -11 -10z"/>
<path d="M1910 1640 c0 -5 5 -10 11 -10 5 0 7 5 4 10 -3 6 -8 10 -11 10 -2 0
-4 -4 -4 -10z"/>
<path d="M1875 1590 c-3 -5 0 -12 5 -15 8 -5 6 -13 -6 -26 -14 -16 -15 -23 -5
-45 6 -14 8 -31 5 -37 -4 -7 -4 -9 1 -5 4 4 14 3 22 -3 10 -9 10 -6 -1 16 -8
15 -12 34 -9 41 3 8 0 14 -7 14 -7 0 -5 6 4 16 9 8 14 19 11 24 -3 5 0 10 7
12 8 3 6 7 -5 11 -9 3 -19 2 -22 -3z"/>
<path d="M1730 1540 c0 -5 5 -10 11 -10 5 0 7 5 4 10 -3 6 -8 10 -11 10 -2 0
-4 -4 -4 -10z"/>
<path d="M1895 1420 c3 -5 8 -10 11 -10 2 0 4 5 4 10 0 6 -5 10 -11 10 -5 0
-7 -4 -4 -10z"/>
<path d="M1895 1380 c-3 -5 -1 -10 4 -10 6 0 11 5 11 10 0 6 -2 10 -4 10 -3 0
-8 -4 -11 -10z"/>
<path d="M1865 1341 c-3 -6 5 -15 17 -21 21 -10 21 -10 6 3 -10 8 -15 17 -11
20 3 4 4 7 0 7 -3 0 -8 -4 -12 -9z"/>
<path d="M1850 1240 c0 -5 7 -7 15 -4 8 4 15 8 15 10 0 2 -7 4 -15 4 -8 0 -15
-4 -15 -10z"/>
<path d="M1870 1219 c0 -5 -4 -8 -9 -5 -5 3 -7 -9 -6 -27 2 -17 0 -36 -3 -42
-10 -16 -11 -34 -2 -40 5 -3 7 3 5 12 -1 10 2 23 7 29 5 7 8 16 7 20 -1 5 -1
11 1 14 5 15 9 50 5 50 -3 0 -5 -5 -5 -11z"/>
<path d="M1670 1189 c0 -5 5 -7 10 -4 6 3 10 8 10 11 0 2 -4 4 -10 4 -5 0 -10
-5 -10 -11z"/>
<path d="M1870 1125 c0 -8 2 -15 4 -15 2 0 6 7 10 15 3 8 1 15 -4 15 -6 0 -10
-7 -10 -15z"/>
<path d="M565 2440 c-3 -6 1 -7 9 -4 18 7 21 14 7 14 -6 0 -13 -4 -16 -10z"/>
<path d="M770 2419 c0 -5 5 -7 10 -4 6 3 10 8 10 11 0 2 -4 4 -10 4 -5 0 -10
-5 -10 -11z"/>
<path d="M985 2360 c-3 -5 -1 -10 4 -10 6 0 11 5 11 10 0 6 -2 10 -4 10 -3 0
-8 -4 -11 -10z"/>
<path d="M1215 2321 c-3 -5 -2 -12 3 -15 5 -3 9 1 9 9 0 17 -3 19 -12 6z"/>
<path d="M1256 2298 c3 -5 10 -6 15 -3 13 9 11 12 -6 12 -8 0 -12 -4 -9 -9z"/>
<path d="M1884 2295 c-5 -13 -9 -13 -21 -3 -9 7 -4 -5 11 -26 25 -37 32 -56
21 -56 -2 0 -12 14 -20 31 -13 25 -19 28 -31 18 -8 -6 -14 -16 -14 -22 0 -6 6
-3 13 6 11 15 14 14 29 -14 18 -30 18 -30 -5 -25 l-22 6 23 -11 c12 -7 22 -17
22 -22 0 -6 6 -3 13 8 10 12 16 14 21 7 4 -7 2 -12 -4 -12 -14 0 7 -22 37 -38
19 -10 20 -9 15 10 -5 21 -5 21 14 2 18 -17 18 -20 4 -32 -13 -11 -12 -12 6
-3 28 14 24 50 -10 84 -21 21 -28 24 -32 12 -4 -8 -10 -12 -16 -9 -5 3 -4 12
3 20 16 19 5 28 -19 15 -16 -8 -21 -6 -30 13 -6 14 -6 28 0 39 5 9 6 17 3 17
-3 0 -8 -7 -11 -15z m47 -69 c-14 -17 10 -41 25 -26 7 7 18 2 32 -15 12 -13
17 -27 13 -30 -5 -3 -11 2 -15 10 -3 8 -12 12 -21 9 -8 -3 -12 -11 -8 -18 4
-6 -1 -5 -10 3 -10 8 -15 16 -12 19 3 3 0 11 -6 19 -10 11 -15 11 -28 1 -15
-12 -15 -11 -1 7 15 20 31 35 39 35 2 0 -2 -6 -8 -14z"/>
<path d="M1945 2180 c-3 -6 1 -7 9 -4 18 7 21 14 7 14 -6 0 -13 -4 -16 -10z"/>
<path d="M1356 2287 c3 -10 9 -15 12 -12 3 3 0 11 -7 18 -10 9 -11 8 -5 -6z"/>
<path d="M1811 2287 c-8 -10 -7 -14 2 -14 8 0 14 6 14 14 0 7 -1 13 -2 13 -2
0 -8 -6 -14 -13z"/>
<path d="M1920 2284 c-14 -7 -19 -14 -12 -14 7 0 10 -4 7 -10 -14 -22 4 -8 19
15 9 14 15 25 14 24 -2 -1 -14 -7 -28 -15z"/>
<path d="M678 2229 c-7 -5 -9 -11 -5 -16 5 -4 12 -1 16 6 7 11 10 11 14 0 4
-11 6 -11 6 -1 1 7 5 11 10 7 5 -3 12 -2 15 3 6 10 -40 11 -56 1z"/>
<path d="M895 2229 c-4 -5 -11 -7 -16 -4 -5 4 -6 -2 -2 -11 4 -11 8 -13 11 -6
2 7 7 10 11 8 4 -3 13 -1 20 3 10 6 9 10 -3 14 -8 3 -18 2 -21 -4z"/>
<path d="M1510 2230 c-9 -6 -10 -10 -3 -10 6 0 15 5 18 10 8 12 4 12 -15 0z"/>
<path d="M987 2215 c-4 -8 -1 -17 6 -21 7 -4 9 -4 5 1 -4 4 -3 14 3 22 7 8 8
13 1 13 -5 0 -12 -7 -15 -15z"/>
<path d="M1047 2216 c-4 -10 -13 -13 -24 -10 -15 5 -16 4 -3 -5 11 -7 19 -6
29 4 8 8 12 17 9 20 -3 3 -8 -1 -11 -9z"/>
<path d="M1165 2222 c3 -3 -3 -11 -13 -19 -15 -13 -15 -13 5 -4 26 13 36 14
29 3 -3 -5 1 -9 8 -9 11 0 11 5 4 17 -6 9 -17 17 -24 17 -8 0 -12 -3 -9 -5z"/>
<path d="M731 2211 c-8 -5 -9 -11 -3 -15 5 -3 12 1 16 9 6 17 6 18 -13 6z"/>
<path d="M1340 2210 c-12 -7 -10 -9 8 -7 12 0 22 5 22 9 0 11 -12 10 -30 -2z"/>
<path d="M1475 2210 c-4 -6 -10 -8 -15 -5 -10 6 -7 -21 4 -32 4 -4 6 -1 4 7
-1 8 2 14 8 13 6 -1 11 5 11 13 0 17 -4 18 -12 4z"/>
<path d="M1310 2201 c0 -6 4 -13 10 -16 6 -3 7 1 4 9 -7 18 -14 21 -14 7z"/>
<path d="M1516 2193 c-6 -14 -5 -15 5 -6 7 7 10 15 7 18 -3 3 -9 -2 -12 -12z"/>
<path d="M1040 2180 c-9 -6 -10 -10 -3 -10 6 0 15 5 18 10 8 12 4 12 -15 0z"/>
<path d="M1348 2183 c7 -3 16 -2 19 1 4 3 -2 6 -13 5 -11 0 -14 -3 -6 -6z"/>
<path d="M2055 2179 c-4 -6 -5 -12 -2 -15 2 -3 7 2 10 11 7 17 1 20 -8 4z"/>
<path d="M2036 2143 c2 -7 -7 -20 -19 -29 -14 -10 -16 -14 -5 -11 18 6 42 -15
30 -27 -4 -4 -2 -6 4 -4 7 2 21 -7 32 -20 12 -13 28 -25 36 -26 9 -1 25 -12
37 -25 13 -14 27 -20 38 -16 30 12 36 10 34 -12 -1 -11 4 -27 12 -33 18 -15
20 1 3 18 -9 9 -9 12 2 12 7 0 10 3 7 7 -4 3 -2 12 4 20 9 10 8 13 -5 13 -18
0 -21 11 -6 26 7 7 6 11 -4 11 -8 0 -13 -4 -10 -8 2 -4 -5 -7 -16 -6 -11 1
-20 7 -20 15 0 7 5 10 10 7 6 -3 10 -1 10 5 0 7 -7 10 -15 7 -8 -4 -17 -2 -21
4 -3 6 -12 8 -20 5 -8 -3 -17 1 -21 10 -3 8 -12 13 -20 10 -9 -4 -13 -1 -10 6
2 7 10 12 16 11 6 -2 11 2 11 8 0 6 -6 9 -14 6 -16 -6 -40 16 -29 26 3 4 1 7
-5 7 -16 0 -15 -10 5 -32 19 -21 6 -24 -19 -4 -10 7 -14 17 -10 21 4 5 2 5 -5
2 -6 -4 -13 -4 -16 0 -2 5 -2 2 -1 -4z m53 -47 c8 -9 17 -14 21 -11 4 3 13 -2
20 -10 6 -7 17 -12 24 -9 8 3 18 -8 26 -25 7 -17 17 -31 22 -31 5 0 6 5 3 10
-11 18 2 10 21 -12 10 -13 12 -18 5 -11 -10 9 -20 9 -34 2 -15 -9 -18 -8 -12
2 6 9 3 11 -8 6 -19 -7 -61 39 -50 56 4 6 1 7 -7 2 -9 -6 -11 -4 -5 5 6 9 4
11 -4 5 -9 -5 -10 -10 -2 -18 6 -6 11 -15 11 -20 0 -5 -20 10 -44 34 -24 24
-42 47 -39 51 5 10 35 -5 52 -26z"/>
<path d="M2075 2090 c10 -11 20 -20 23 -20 3 0 -3 9 -13 20 -10 11 -20 20 -23
20 -3 0 3 -9 13 -20z"/>
<path d="M2140 2040 c13 -23 27 -33 34 -22 7 12 -10 35 -28 38 -12 2 -14 -2
-6 -16z m24 -6 c3 -8 2 -12 -4 -9 -6 3 -10 10 -10 16 0 14 7 11 14 -7z"/>
<path d="M2170 2101 c0 -6 4 -13 10 -16 6 -3 7 1 4 9 -7 18 -14 21 -14 7z"/>
<path d="M2319 2003 c-1 -5 -1 -12 0 -16 1 -5 -8 -11 -19 -14 -21 -6 -28 -22
-10 -24 19 -3 25 -5 49 -18 13 -7 21 -8 17 -3 -3 6 2 13 11 15 13 3 12 5 -5 6
-13 0 -20 6 -17 11 3 6 1 10 -4 10 -6 0 -11 -5 -11 -11 0 -5 -5 -7 -10 -4 -6
4 -7 12 -3 18 9 14 13 37 7 37 -2 0 -5 -3 -5 -7z"/>
<path d="M573 1865 c0 -8 4 -12 9 -9 5 3 6 10 3 15 -9 13 -12 11 -12 -6z"/>
<path d="M2385 1870 c-3 -5 -2 -10 4 -10 5 0 13 5 16 10 3 6 2 10 -4 10 -5 0
-13 -4 -16 -10z"/>
<path d="M2490 1866 c0 -3 9 -10 20 -16 11 -6 20 -8 20 -6 0 3 -9 10 -20 16
-11 6 -20 8 -20 6z"/>
<path d="M1070 1760 c0 -5 5 -10 11 -10 5 0 7 5 4 10 -3 6 -8 10 -11 10 -2 0
-4 -4 -4 -10z"/>
<path d="M957 1753 c-10 -9 -9 -23 1 -23 5 0 9 7 9 15 0 17 -1 18 -10 8z"/>
<path d="M736 1742 c-6 -10 3 -23 29 -42 20 -14 20 -14 2 7 -13 15 -15 22 -6
25 9 3 8 6 -4 11 -9 3 -18 3 -21 -1z"/>
<path d="M2667 1729 c7 -7 15 -10 18 -7 3 3 -2 9 -12 12 -14 6 -15 5 -6 -5z"/>
<path d="M920 1720 c8 -5 20 -10 25 -10 6 0 3 5 -5 10 -8 5 -19 10 -25 10 -5
0 -3 -5 5 -10z"/>
<path d="M1080 1720 c8 -5 20 -10 25 -10 6 0 3 5 -5 10 -8 5 -19 10 -25 10 -5
0 -3 -5 5 -10z"/>
<path d="M690 1700 c0 -5 5 -10 11 -10 5 0 7 5 4 10 -3 6 -8 10 -11 10 -2 0
-4 -4 -4 -10z"/>
<path d="M616 1678 c3 -5 10 -6 15 -3 13 9 11 12 -6 12 -8 0 -12 -4 -9 -9z"/>
<path d="M336 1662 c-2 -4 4 -8 15 -8 10 0 19 4 19 8 0 4 -6 8 -14 8 -8 0 -17
-4 -20 -8z"/>
<path d="M490 1640 c-6 -11 -8 -20 -6 -20 3 0 10 9 16 20 6 11 8 20 6 20 -3 0
-10 -9 -16 -20z"/>
<path d="M2810 1640 c0 -5 5 -10 11 -10 5 0 7 5 4 10 -3 6 -8 10 -11 10 -2 0
-4 -4 -4 -10z"/>
<path d="M2833 1601 c-9 -15 -9 -23 2 -37 13 -17 14 -16 13 19 -1 20 -2 37 -2
37 -1 0 -7 -9 -13 -19z"/>
<path d="M2866 1602 c-3 -5 1 -9 9 -9 8 0 12 4 9 9 -3 4 -7 8 -9 8 -2 0 -6 -4
-9 -8z"/>
<path d="M399 1577 c13 -16 13 -20 0 -28 -9 -6 -10 -9 -2 -9 7 0 22 10 34 23
12 12 19 16 15 10 -4 -7 -2 -22 4 -34 9 -16 9 -24 -1 -33 -9 -8 -10 -8 -4 3 8
14 -13 33 -27 25 -15 -10 -8 -26 8 -20 14 5 15 4 4 -9 -9 -11 -17 -12 -30 -5
-10 6 -22 10 -27 10 -4 -1 4 -7 19 -16 17 -9 25 -20 22 -29 -4 -8 -1 -15 5
-15 6 0 11 -7 11 -16 0 -13 -3 -14 -14 -5 -10 8 -16 9 -21 1 -4 -6 -1 -9 7 -8
8 2 12 -4 10 -14 -2 -16 7 -22 29 -20 4 1 7 -10 7 -23 0 -14 -4 -25 -9 -25 -5
0 -9 8 -9 18 0 14 -2 15 -10 2 -6 -10 -5 -17 5 -22 16 -9 47 0 40 12 -3 5 3
14 12 20 17 11 17 11 0 6 -12 -4 -17 -2 -14 6 2 7 10 12 16 10 7 -1 10 2 6 8
-5 8 -12 7 -23 -2 -13 -11 -15 -11 -10 3 4 9 1 22 -5 28 -6 6 -7 11 -1 11 5 0
2 5 -6 11 -13 9 -13 10 0 6 8 -2 14 -9 13 -15 -3 -14 25 -24 33 -11 3 5 1 16
-5 23 -7 9 -7 16 1 24 9 9 9 12 -1 12 -7 0 -9 5 -6 10 5 8 11 7 21 -1 10 -8
14 -8 14 0 0 6 -4 11 -8 11 -5 0 -9 7 -9 15 0 10 6 14 16 10 8 -3 12 -2 7 2
-4 4 -18 8 -29 8 -13 0 -22 6 -22 15 0 21 -17 31 -32 18 -9 -7 -18 -7 -30 3
-17 13 -17 12 -4 -4z m79 -64 c-14 -18 -18 -52 -6 -59 4 -3 8 -10 8 -17 0 -6
-7 -1 -16 11 -9 13 -22 21 -29 18 -8 -3 -12 2 -11 12 2 9 5 15 8 12 9 -9 39
23 34 36 -3 8 0 11 10 7 12 -4 12 -8 2 -20z m-36 -100 c-6 -2 -9 -10 -6 -15 4
-7 2 -8 -5 -4 -13 9 -5 26 12 25 9 0 8 -2 -1 -6z"/>
<path d="M2853 1518 c-5 -7 -9 -19 -9 -27 1 -17 26 -28 26 -11 0 6 5 8 12 4 7
-4 8 -3 4 5 -4 6 -12 8 -18 5 -6 -4 -8 1 -3 15 7 24 2 27 -12 9z"/>
<path d="M495 1460 c3 -5 8 -10 11 -10 2 0 4 5 4 10 0 6 -5 10 -11 10 -5 0 -7
-4 -4 -10z"/>
<path d="M2563 1451 c-12 -11 -23 -17 -26 -15 -3 3 -10 -5 -17 -18 -10 -20
-10 -21 3 -6 8 10 16 16 19 13 2 -3 15 6 28 20 28 30 23 33 -7 6z"/>
<path d="M2721 1427 c-9 -12 -7 -14 9 -13 11 0 21 5 21 11 1 16 -17 17 -30 2z"/>
<path d="M495 1420 c-3 -5 -1 -10 4 -10 6 0 11 5 11 10 0 6 -2 10 -4 10 -3 0
-8 -4 -11 -10z"/>
<path d="M2728 1393 c6 -2 9 -10 6 -15 -4 -7 -2 -8 5 -4 13 9 5 26 -12 25 -9
0 -8 -2 1 -6z"/>
<path d="M396 1377 c3 -10 9 -15 12 -12 3 3 0 11 -7 18 -10 9 -11 8 -5 -6z"/>
<path d="M2450 1380 c0 -5 5 -10 11 -10 5 0 7 5 4 10 -3 6 -8 10 -11 10 -2 0
-4 -4 -4 -10z"/>
<path d="M2605 1360 c3 -5 8 -10 11 -10 2 0 4 5 4 10 0 6 -5 10 -11 10 -5 0
-7 -4 -4 -10z"/>
<path d="M413 1308 c-2 -16 1 -18 10 -9 7 7 8 14 1 21 -6 6 -10 2 -11 -12z"/>
<path d="M435 1288 c-16 -11 -22 -18 -12 -14 19 6 24 -10 5 -17 -7 -3 -3 -4 8
-4 14 1 20 6 16 15 -3 8 1 18 9 22 7 5 11 11 9 13 -3 2 -18 -5 -35 -15z"/>
<path d="M2330 1303 c0 -5 6 -15 13 -22 10 -10 7 -12 -13 -8 -14 2 -19 2 -12
0 6 -3 12 -9 12 -14 0 -6 -6 -7 -12 -3 -9 5 -9 3 1 -9 7 -9 18 -14 24 -10 6 3
7 1 3 -5 -9 -15 -46 2 -46 21 -1 26 -29 -37 -32 -70 -2 -16 -4 -16 -30 -2 -12
6 -18 7 -14 1 7 -11 -17 -35 -28 -27 -3 3 -2 -1 4 -7 18 -22 10 -32 -10 -13
-11 10 -20 13 -20 7 0 -7 5 -12 11 -12 5 0 7 -5 3 -12 -4 -7 -3 -8 4 -4 19 11
14 -5 -5 -20 -15 -10 -21 -10 -35 3 -16 14 -18 14 -24 -1 -4 -11 -10 -13 -18
-7 -8 7 -12 4 -12 -9 0 -15 4 -16 18 -9 10 5 18 15 18 21 0 6 6 6 16 -3 15
-12 52 -24 41 -13 -9 9 45 59 59 56 8 -2 14 2 14 8 0 7 7 7 23 -1 12 -6 19 -8
15 -4 -12 13 21 50 45 50 12 1 21 6 20 13 -2 7 7 12 19 12 17 0 19 3 10 12
-16 16 -15 23 4 43 9 9 14 19 10 22 -3 4 -12 -2 -19 -11 -13 -17 -15 -17 -35
9 -12 15 -22 23 -22 18z m26 -42 c-4 -5 -1 -11 6 -13 7 -3 9 -11 3 -24 -4 -10
-8 -22 -7 -26 1 -4 -7 -5 -18 -3 -11 2 -22 -1 -25 -6 -4 -5 -11 -7 -16 -3 -6
3 -9 -2 -7 -11 2 -10 -2 -20 -9 -22 -7 -3 -11 4 -10 16 1 12 4 21 8 21 4 0 6
8 4 18 -4 30 6 34 30 12 l23 -22 11 21 c11 20 8 26 -13 22 -5 -1 -4 5 4 13 13
17 25 22 16 7z m-108 -106 c-2 -5 -11 -11 -22 -12 -16 -3 -17 -1 -6 12 14 16
34 16 28 0z"/>
<path d="M2294 1213 c2 -10 6 -17 10 -16 15 3 16 11 2 22 -12 10 -14 9 -12 -6z"/>
<path d="M2255 1249 c-4 -6 -5 -12 -2 -15 2 -3 7 2 10 11 7 17 1 20 -8 4z"/>
<path d="M397 1229 c7 -7 15 -10 18 -7 3 3 -2 9 -12 12 -14 6 -15 5 -6 -5z"/>
<path d="M2241 1211 c-8 -5 -9 -11 -3 -15 5 -3 12 1 16 9 6 17 6 18 -13 6z"/>
<path d="M390 1199 c0 -5 5 -7 10 -4 6 3 10 8 10 11 0 2 -4 4 -10 4 -5 0 -10
-5 -10 -11z"/>
<path d="M421 1194 c0 -11 3 -14 6 -6 3 7 2 16 -1 19 -3 4 -6 -2 -5 -13z"/>
<path d="M2381 1186 c-9 -11 -9 -16 0 -22 7 -4 9 -3 5 4 -3 6 2 15 11 21 10 6
13 11 7 11 -6 0 -17 -6 -23 -14z"/>
<path d="M2190 1180 c0 -5 5 -10 10 -10 6 0 10 5 10 10 0 6 -4 10 -10 10 -5 0
-10 -4 -10 -10z"/>
<path d="M2340 1162 c0 -5 7 -9 15 -9 8 0 12 4 9 9 -3 4 -9 8 -15 8 -5 0 -9
-4 -9 -8z"/>
<path d="M2116 1142 c-3 -5 1 -9 9 -9 8 0 12 4 9 9 -3 4 -7 8 -9 8 -2 0 -6 -4
-9 -8z"/>
<path d="M2270 1121 c0 -6 4 -13 10 -16 6 -3 7 1 4 9 -7 18 -14 21 -14 7z"/>
<path d="M2155 1110 c3 -5 8 -10 11 -10 2 0 4 5 4 10 0 6 -5 10 -11 10 -5 0
-7 -4 -4 -10z"/>
<path d="M2073 1045 c0 -8 4 -15 9 -15 4 0 8 4 8 9 0 6 -4 12 -8 15 -5 3 -9
-1 -9 -9z"/>
<path d="M2040 1020 c-9 -6 -10 -10 -3 -10 6 0 15 5 18 10 8 12 4 12 -15 0z"/>
<path d="M2110 1019 c0 -5 5 -7 10 -4 6 3 10 8 10 11 0 2 -4 4 -10 4 -5 0 -10
-5 -10 -11z"/>
<path d="M1835 1000 c2 -4 -4 -15 -15 -25 -11 -10 -20 -14 -20 -9 0 5 -5 1
-11 -8 -5 -10 -16 -15 -24 -12 -8 4 -15 1 -15 -6 0 -6 5 -8 10 -5 6 3 11 1 11
-4 1 -6 2 -15 3 -20 0 -5 5 -13 10 -18 6 -5 6 -2 1 6 -6 11 -4 13 9 8 9 -4 15
-3 12 2 -3 5 3 20 14 32 11 13 19 19 20 14 0 -6 -6 -17 -12 -25 -11 -12 -10
-12 3 -2 9 6 20 8 24 4 5 -4 5 -1 1 5 -4 7 -9 22 -11 34 -3 15 0 19 11 15 10
-4 13 -2 8 6 -5 8 -2 9 10 5 9 -4 15 -3 12 2 -3 5 -17 9 -31 9 -13 0 -23 -4
-20 -8z m-17 -44 c-15 -13 -24 -27 -21 -30 4 -3 1 -6 -5 -6 -19 0 -14 13 16
37 36 30 44 29 10 -1z"/>
<path d="M1876 953 c-6 -14 -5 -15 5 -6 7 7 10 15 7 18 -3 3 -9 -2 -12 -12z"/>
<path d="M1711 924 c0 -11 3 -14 6 -6 3 7 2 16 -1 19 -3 4 -6 -2 -5 -13z"/>
</g>
</svg>
